<svg width="24" height="24" viewBox="0 0 24 24" fill="none" xmlns="http://www.w3.org/2000/svg">
<g clip-path="url(#clip0_354_678)">
<path d="M5.48122 1.99244C5.39267 1.87853 5.28089 1.78477 5.15332 1.71738C5.02575 1.64999 4.8853 1.61051 4.7413 1.60158C4.59729 1.59264 4.45304 1.61444 4.31811 1.66554C4.18319 1.71664 4.06067 1.79586 3.95872 1.89794L2.40772 3.45044C1.68322 4.17644 1.41622 5.20394 1.73272 6.10544C3.04633 9.83682 5.18316 13.2246 7.98472 16.0174C10.7776 18.819 14.1654 20.9558 17.8967 22.2694C18.7982 22.5859 19.8257 22.3189 20.5517 21.5944L22.1027 20.0434C22.2048 19.9415 22.284 19.819 22.3351 19.684C22.3862 19.5491 22.408 19.4049 22.3991 19.2609C22.3901 19.1169 22.3507 18.9764 22.2833 18.8488C22.2159 18.7213 22.1221 18.6095 22.0082 18.5209L18.5477 15.8299C18.426 15.7356 18.2845 15.67 18.1338 15.6383C17.9831 15.6066 17.8271 15.6096 17.6777 15.6469L14.3927 16.4674C13.9542 16.577 13.4949 16.5712 13.0593 16.4506C12.6237 16.3299 12.2268 16.0985 11.9072 15.7789L8.22322 12.0934C7.90337 11.774 7.67171 11.3772 7.55079 10.9416C7.42987 10.506 7.42381 10.0466 7.53322 9.60794L8.35522 6.32294C8.39258 6.17354 8.39552 6.0176 8.36382 5.86689C8.33212 5.71618 8.2666 5.57464 8.17222 5.45294L5.48122 1.99244ZM2.82622 0.766942C3.08871 0.504367 3.40406 0.300638 3.75133 0.169284C4.09859 0.0379306 4.46983 -0.0180424 4.84039 0.00508205C5.21095 0.0282065 5.57235 0.129899 5.90059 0.303408C6.22883 0.476916 6.51641 0.71827 6.74422 1.01144L9.43522 4.47044C9.92872 5.10494 10.1027 5.93144 9.90772 6.71144L9.08722 9.99644C9.0448 10.1666 9.04709 10.3448 9.09387 10.5138C9.14065 10.6828 9.23034 10.8368 9.35422 10.9609L13.0397 14.6464C13.164 14.7706 13.3183 14.8604 13.4875 14.9072C13.6568 14.954 13.8354 14.9561 14.0057 14.9134L17.2892 14.0929C17.6741 13.9967 18.0759 13.9892 18.4641 14.0711C18.8524 14.1529 19.2169 14.322 19.5302 14.5654L22.9892 17.2564C24.2327 18.2239 24.3467 20.0614 23.2337 21.1729L21.6827 22.7239C20.5727 23.8339 18.9137 24.3214 17.3672 23.7769C13.409 22.3842 9.81513 20.1182 6.85222 17.1469C3.88115 14.1845 1.61513 10.5911 0.222218 6.63344C-0.320782 5.08844 0.166718 3.42794 1.27672 2.31794L2.82772 0.766942H2.82622Z" fill="#0756CF"/>
</g>
<defs>
<clipPath id="clip0_354_678">
<rect width="24" height="24" fill="white"/>
</clipPath>
</defs>
</svg>
