<svg width="31" height="31" viewBox="0 0 31 31" fill="none" xmlns="http://www.w3.org/2000/svg">
<circle cx="15" cy="15" r="12.5" fill="white"/>
<path fill-rule="evenodd" clip-rule="evenodd" d="M15.5 1.75C7.90625 1.75 1.75 7.90625 1.75 15.5C1.75 23.0938 7.90625 29.25 15.5 29.25C23.0938 29.25 29.25 23.0938 29.25 15.5C29.25 7.90625 23.0938 1.75 15.5 1.75ZM21.46 13.175C21.5697 13.0496 21.6533 12.9034 21.7057 12.7452C21.7582 12.587 21.7784 12.4199 21.7653 12.2537C21.7522 12.0876 21.706 11.9257 21.6295 11.7777C21.5529 11.6296 21.4475 11.4984 21.3194 11.3917C21.1914 11.285 21.0433 11.205 20.8839 11.1563C20.7244 11.1077 20.5569 11.0915 20.3911 11.1085C20.2253 11.1256 20.0646 11.1757 19.9184 11.2558C19.7723 11.3359 19.6436 11.4444 19.54 11.575L14.165 18.0238L11.3837 15.2413C11.148 15.0136 10.8322 14.8876 10.5045 14.8904C10.1768 14.8933 9.86324 15.0247 9.63148 15.2565C9.39972 15.4882 9.26826 15.8018 9.26541 16.1295C9.26256 16.4572 9.38855 16.773 9.61625 17.0087L13.3663 20.7588C13.4891 20.8815 13.6361 20.9773 13.798 21.0401C13.9599 21.1028 14.1331 21.1312 14.3066 21.1233C14.4801 21.1154 14.65 21.0715 14.8055 20.9943C14.9611 20.9171 15.0988 20.8084 15.21 20.675L21.46 13.175Z" fill="#0756CF"/>
</svg>
