<svg width="103" height="15" viewBox="0 0 103 15" fill="none" xmlns="http://www.w3.org/2000/svg">
<path d="M7.5 0L9.18386 5.18237H14.6329L10.2245 8.38525L11.9084 13.5676L7.5 10.3647L3.09161 13.5676L4.77547 8.38525L0.367076 5.18237H5.81614L7.5 0Z" fill="#0756CF"/>
<path d="M29.5 0L31.1839 5.18237H36.6329L32.2245 8.38525L33.9084 13.5676L29.5 10.3647L25.0916 13.5676L26.7755 8.38525L22.3671 5.18237H27.8161L29.5 0Z" fill="#0756CF"/>
<path d="M51.5 0L53.1839 5.18237H58.6329L54.2245 8.38525L55.9084 13.5676L51.5 10.3647L47.0916 13.5676L48.7755 8.38525L44.3671 5.18237H49.8161L51.5 0Z" fill="#0756CF"/>
<path d="M73.5 0L75.1839 5.18237H80.6329L76.2245 8.38525L77.9084 13.5676L73.5 10.3647L69.0916 13.5676L70.7755 8.38525L66.3671 5.18237H71.8161L73.5 0Z" fill="#0756CF"/>
<path d="M95.5 0L97.1839 5.18237H102.633L98.2245 8.38525L99.9084 13.5676L95.5 10.3647L91.0916 13.5676L92.7755 8.38525L88.3671 5.18237H93.8161L95.5 0Z" fill="#0756CF"/>
</svg>
