<svg width="36" height="35" viewBox="0 0 36 35" fill="none" xmlns="http://www.w3.org/2000/svg">
<path d="M32.7461 9.43256L21.8086 3.41693C21.6471 3.32808 21.4657 3.28149 21.2814 3.28149C21.0971 3.28149 20.9157 3.32808 20.7542 3.41693L9.81671 9.43256C9.64522 9.52697 9.50222 9.66569 9.40262 9.83422C9.30303 10.0027 9.25049 10.1949 9.25049 10.3907C9.25049 10.5864 9.30303 10.7786 9.40262 10.9471C9.50222 11.1157 9.64522 11.2544 9.81671 11.3488L20.1876 17.0527V28.7766L16.867 26.9501L15.8126 28.8652L20.7542 31.5832C20.9157 31.6722 21.097 31.7189 21.2814 31.7189C21.4658 31.7189 21.6471 31.6722 21.8086 31.5832L32.7461 25.5676C32.9176 25.4732 33.0607 25.3345 33.1604 25.166C33.26 24.9974 33.3126 24.8052 33.3126 24.6094V10.3907C33.3126 10.1949 33.26 10.0027 33.1604 9.83416C33.0607 9.66562 32.9176 9.52693 32.7461 9.43256ZM21.2814 5.62412L29.9494 10.3907L21.2814 15.1572L12.6134 10.3907L21.2814 5.62412ZM31.1251 23.963L22.3751 28.7755V17.0516L31.1251 12.2391V23.963Z" fill="#0756CF"/>
<path d="M11.4375 17.5H2.6875V15.3125H11.4375V17.5ZM13.625 26.25H4.875V24.0625H13.625V26.25ZM15.8125 21.875H7.0625V19.6875H15.8125V21.875Z" fill="#0756CF"/>
</svg>
