<svg width="36" height="35" viewBox="0 0 36 35" fill="none" xmlns="http://www.w3.org/2000/svg">
<path d="M32.6234 16.1328L22.375 10.9375V6.5625C22.375 5.40218 21.9141 4.28938 21.0936 3.46891C20.2731 2.64844 19.1603 2.1875 18 2.1875C16.8397 2.1875 15.7269 2.64844 14.9064 3.46891C14.0859 4.28938 13.625 5.40218 13.625 6.5625V10.9375L3.37656 16.1328C3.17305 16.2139 2.99857 16.3542 2.87571 16.5355C2.75286 16.7169 2.68729 16.9309 2.6875 17.15V22.6187C2.6875 22.9088 2.80273 23.187 3.00785 23.3921C3.21297 23.5973 3.49117 23.7125 3.78125 23.7125C3.8891 23.71 3.99598 23.6916 4.09844 23.6578L13.625 19.6875V25.1562L9.85156 27.0375C9.66952 27.1292 9.51674 27.27 9.41045 27.4439C9.30415 27.6179 9.24858 27.818 9.25 28.0219V31.7188C9.25 32.0088 9.36523 32.287 9.57035 32.4921C9.77547 32.6973 10.0537 32.8125 10.3438 32.8125C10.4452 32.8285 10.5485 32.8285 10.65 32.8125L18 30.625L25.35 32.8125C25.4515 32.8285 25.5548 32.8285 25.6562 32.8125C25.9463 32.8125 26.2245 32.6973 26.4296 32.4921C26.6348 32.287 26.75 32.0088 26.75 31.7188V28.0219C26.7514 27.818 26.6958 27.6179 26.5896 27.4439C26.4833 27.27 26.3305 27.1292 26.1484 27.0375L22.375 25.1562V19.6875L31.9016 23.6359C32.004 23.6697 32.1109 23.6881 32.2188 23.6906C32.5088 23.6906 32.787 23.5754 32.9921 23.3703C33.1973 23.1652 33.3125 22.887 33.3125 22.5969V17.1281C33.3084 16.9128 33.2408 16.7035 33.1182 16.5264C32.9956 16.3494 32.8235 16.2125 32.6234 16.1328ZM31.125 20.9453L20.1875 16.4062V26.5125L24.5625 28.7V30.2641L18 28.35L11.4375 30.2641V28.7L15.8125 26.5125V16.4062L4.875 20.9453V17.8281L15.8125 12.2828V6.5625C15.8125 5.98234 16.043 5.42594 16.4532 5.0157C16.8634 4.60547 17.4198 4.375 18 4.375C18.5802 4.375 19.1366 4.60547 19.5468 5.0157C19.957 5.42594 20.1875 5.98234 20.1875 6.5625V12.2828L31.125 17.8281V20.9453Z" fill="#0756CF"/>
</svg>
