<svg width="36" height="35" viewBox="0 0 36 35" fill="none" xmlns="http://www.w3.org/2000/svg">
<path d="M13.625 3.57011C13.3929 3.57011 13.1704 3.6623 13.0063 3.82639C12.8422 3.99049 12.75 4.21304 12.75 4.44511V8.75011H8.375C8.14294 8.75011 7.92038 8.8423 7.75628 9.00639C7.59219 9.17049 7.5 9.39304 7.5 9.62511V16.7354L4.6405 17.5334C4.51803 17.5676 4.4045 17.6281 4.30781 17.7107C4.21111 17.7933 4.13358 17.896 4.08061 18.0116C4.02764 18.1272 4.0005 18.2529 4.00108 18.3801C4.00167 18.5072 4.02997 18.6327 4.084 18.7479L7.2375 25.4504C7.62258 24.9859 8.15592 24.6682 8.74775 24.5509L6.107 18.9404L17.055 15.8901C17.6698 15.7187 18.3197 15.7187 18.9345 15.8901L29.8843 18.9404L27.1893 24.5386C27.7821 24.6371 28.3233 24.9361 28.7223 25.3856L31.916 18.7566C31.9713 18.6413 32.0007 18.5152 32.002 18.3874C32.0034 18.2595 31.9766 18.1328 31.9237 18.0164C31.8709 17.8999 31.7931 17.7965 31.6959 17.7133C31.5987 17.6302 31.4845 17.5693 31.3612 17.5351L28.5 16.7371V9.62511C28.5 9.39304 28.4078 9.17049 28.2437 9.00639C28.0796 8.8423 27.8571 8.75011 27.625 8.75011H23.25V4.44336C23.25 4.21129 23.1578 3.98874 22.9937 3.82464C22.8296 3.66055 22.6071 3.56836 22.375 3.56836H13.625V3.57011ZM21.5 8.75011H14.5V5.32011H21.5V8.75011ZM26.75 10.5001V16.2489L19.4017 14.2014C18.4801 13.9446 17.5059 13.9446 16.5842 14.2014L9.25 16.2506V10.5001H26.75ZM27.604 26.9326L27.5987 26.9151C27.5535 26.7342 27.4517 26.5724 27.308 26.4534C27.1644 26.3344 26.9865 26.2644 26.8003 26.2537C26.6141 26.243 26.4293 26.292 26.2729 26.3937C26.1165 26.4953 25.9967 26.6443 25.931 26.8189L25.9223 26.8364L25.8872 26.9256C25.6643 27.4272 25.3773 27.8978 25.0333 28.3256C24.4067 29.0956 23.537 29.7501 22.375 29.7501C21.213 29.7501 20.3415 29.0939 19.7115 28.3221C19.3464 27.8695 19.0449 27.369 18.8155 26.8346L18.8068 26.8154C18.7432 26.6495 18.6308 26.507 18.4844 26.4066C18.3379 26.3062 18.1644 26.2527 17.9868 26.2533C17.8093 26.2539 17.6361 26.3084 17.4903 26.4098C17.3445 26.5111 17.2329 26.6544 17.1705 26.8206L17.1617 26.8381L17.1268 26.9274C16.9051 27.4283 16.6192 27.8984 16.2763 28.3256C15.6533 29.0956 14.787 29.7501 13.625 29.7501C12.463 29.7501 11.595 29.0939 10.9685 28.3239C10.6043 27.8712 10.304 27.3707 10.076 26.8364L10.069 26.8189V26.8171C10.0033 26.6426 9.88347 26.4936 9.72709 26.3919C9.57071 26.2902 9.38594 26.2412 9.19973 26.2519C9.01352 26.2627 8.83562 26.3327 8.69197 26.4517C8.54833 26.5706 8.44647 26.7324 8.40125 26.9134V26.9116L8.39775 26.9274L8.37325 27.0079C8.21347 27.4896 7.97775 27.9427 7.675 28.3501C7.13775 29.0676 6.282 29.7501 4.875 29.7501C4.64294 29.7501 4.42038 29.8423 4.25628 30.0064C4.09219 30.1705 4 30.393 4 30.6251C4 30.8572 4.09219 31.0797 4.25628 31.2438C4.42038 31.4079 4.64294 31.5001 4.875 31.5001C6.968 31.5001 8.29975 30.4361 9.075 29.4001C9.1625 29.2829 9.2465 29.1639 9.32 29.0484C9.40925 29.1726 9.5055 29.3004 9.6105 29.4281C10.405 30.4081 11.7245 31.5001 13.625 31.5001C15.5255 31.5001 16.8415 30.4064 17.636 29.4264C17.7616 29.2715 17.8807 29.1116 17.993 28.9469C18.1033 29.1044 18.224 29.2671 18.3553 29.4299C19.155 30.4099 20.4745 31.5001 22.375 31.5001C24.2755 31.5001 25.595 30.4081 26.3895 29.4281C26.491 29.3039 26.5855 29.1796 26.673 29.0571C26.7483 29.1744 26.8305 29.2951 26.918 29.4141C27.695 30.4571 29.0303 31.5264 31.1355 31.5001C31.2504 31.4987 31.3639 31.4747 31.4695 31.4295C31.5752 31.3842 31.6709 31.3186 31.7511 31.2364C31.8314 31.1542 31.8947 31.0569 31.9374 30.9503C31.9801 30.8436 32.0014 30.7295 32 30.6146C31.9986 30.4997 31.9746 30.3862 31.9294 30.2806C31.8841 30.1749 31.8185 30.0792 31.7363 29.999C31.6541 29.9187 31.5568 29.8554 31.4501 29.8127C31.3435 29.77 31.2294 29.7487 31.1145 29.7501C29.7092 29.7676 28.857 29.0869 28.3232 28.3694C28.0204 27.9581 27.7858 27.5007 27.6285 27.0149L27.604 26.9326Z" fill="#0756CF"/>
</svg>
