<svg width="36" height="35" viewBox="0 0 36 35" fill="none" xmlns="http://www.w3.org/2000/svg">
<path d="M4.875 17.5H18V19.6875H4.875V17.5ZM2.6875 12.0312H13.625V14.2188H2.6875V12.0312Z" fill="#0756CF"/>
<path d="M33.2237 18.1628L29.9424 10.5066C29.8582 10.3098 29.7181 10.1421 29.5394 10.0242C29.3607 9.90639 29.1513 9.84363 28.9373 9.84375H25.656V7.65625C25.656 7.36617 25.5408 7.08797 25.3357 6.88285C25.1306 6.67773 24.8524 6.5625 24.5623 6.5625H7.06229V8.75H23.4685V22.4831C22.9701 22.7725 22.534 23.1577 22.1852 23.6165C21.8364 24.0753 21.5819 24.5986 21.4363 25.1562H14.5632C14.297 24.1252 13.6639 23.2267 12.7826 22.629C11.9013 22.0314 10.8322 21.7757 9.77588 21.9099C8.71952 22.044 7.74836 22.5589 7.04443 23.3579C6.34051 24.1569 5.95215 25.1852 5.95215 26.25C5.95215 27.3148 6.34051 28.3431 7.04443 29.1421C7.74836 29.9411 8.71952 30.456 9.77588 30.5901C10.8322 30.7243 11.9013 30.4686 12.7826 29.871C13.6639 29.2733 14.297 28.3748 14.5632 27.3438H21.4363C21.6743 28.2824 22.2184 29.115 22.9827 29.7097C23.7469 30.3044 24.6877 30.6273 25.656 30.6273C26.6244 30.6273 27.5652 30.3044 28.3294 29.7097C29.0937 29.115 29.6378 28.2824 29.8757 27.3438H32.2185C32.5086 27.3438 32.7868 27.2285 32.9919 27.0234C33.1971 26.8183 33.3123 26.5401 33.3123 26.25V18.5938C33.3123 18.4456 33.2822 18.2989 33.2237 18.1628ZM10.3435 28.4375C9.91089 28.4375 9.48796 28.3092 9.12823 28.0688C8.76849 27.8285 8.48812 27.4868 8.32255 27.0871C8.15698 26.6874 8.11366 26.2476 8.19807 25.8232C8.28247 25.3989 8.49081 25.0091 8.79674 24.7032C9.10267 24.3973 9.49244 24.1889 9.91678 24.1045C10.3411 24.0201 10.7809 24.0634 11.1807 24.229C11.5804 24.3946 11.922 24.675 12.1624 25.0347C12.4027 25.3944 12.531 25.8174 12.531 26.25C12.5305 26.83 12.2998 27.386 11.8897 27.7962C11.4796 28.2063 10.9235 28.4369 10.3435 28.4375ZM25.656 12.0312H28.2154L30.5604 17.5H25.656V12.0312ZM25.656 28.4375C25.2234 28.4375 24.8005 28.3092 24.4407 28.0688C24.081 27.8285 23.8006 27.4868 23.635 27.0871C23.4695 26.6874 23.4262 26.2476 23.5106 25.8232C23.595 25.3989 23.8033 25.0091 24.1092 24.7032C24.4152 24.3973 24.8049 24.1889 25.2293 24.1045C25.6536 24.0201 26.0934 24.0634 26.4932 24.229C26.8929 24.3946 27.2345 24.675 27.4749 25.0347C27.7152 25.3944 27.8435 25.8174 27.8435 26.25C27.843 26.83 27.6123 27.386 27.2022 27.7962C26.7921 28.2063 26.236 28.4369 25.656 28.4375ZM31.1248 25.1562H29.8757C29.6348 24.2194 29.0898 23.3889 28.3261 22.7951C27.5625 22.2013 26.6234 21.8777 25.656 21.875V19.6875H31.1248V25.1562Z" fill="#0756CF"/>
</svg>
